<svg width="20" height="19" viewBox="0 0 20 19" fill="none" xmlns="http://www.w3.org/2000/svg">
<path fill-rule="evenodd" clip-rule="evenodd" d="M0 10.4615C0 10.9512 0.194505 11.4207 0.540726 11.767C0.886947 12.1132 1.35652 12.3077 1.84615 12.3077H3.69231V11.0769H1.84615C1.68294 11.0769 1.52642 11.0121 1.41101 10.8967C1.2956 10.7813 1.23077 10.6247 1.23077 10.4615V1.84615C1.23077 1.68294 1.2956 1.52642 1.41101 1.41101C1.52642 1.2956 1.68294 1.23077 1.84615 1.23077H10.4615C10.6247 1.23077 10.7813 1.2956 10.8967 1.41101C11.0121 1.52642 11.0769 1.68294 11.0769 1.84615V3.69231H5.53846C5.04883 3.69231 4.57925 3.88681 4.23303 4.23303C3.88681 4.57925 3.69231 5.04883 3.69231 5.53846V14.1538C3.69231 14.6435 3.88681 15.1131 4.23303 15.4593C4.57925 15.8055 5.04883 16 5.53846 16H14.1538C14.6435 16 15.1131 15.8055 15.4593 15.4593C15.8055 15.1131 16 14.6435 16 14.1538V5.53846C16 5.04883 15.8055 4.57925 15.4593 4.23303C15.1131 3.88681 14.6435 3.69231 14.1538 3.69231H12.3077V1.84615C12.3077 1.35652 12.1132 0.886947 11.767 0.540726C11.4207 0.194505 10.9512 0 10.4615 0H1.84615C1.35652 0 0.886947 0.194505 0.540726 0.540726C0.194505 0.886947 0 1.35652 0 1.84615V10.4615ZM4.92308 5.53846C4.92308 5.37525 4.98791 5.21873 5.10332 5.10332C5.21873 4.98791 5.37525 4.92308 5.53846 4.92308H14.1538C14.3171 4.92308 14.4736 4.98791 14.589 5.10332C14.7044 5.21873 14.7692 5.37525 14.7692 5.53846V14.1538C14.7692 14.3171 14.7044 14.4736 14.589 14.589C14.4736 14.7044 14.3171 14.7692 14.1538 14.7692H5.53846C5.37525 14.7692 5.21873 14.7044 5.10332 14.589C4.98791 14.4736 4.92308 14.3171 4.92308 14.1538V5.53846Z" fill="#94A4A3"/>
<circle cx="14.5" cy="13.5" r="5.5" fill="#F7F7F4"/>
<mask id="mask0_1659_13513" style="mask-type:luminance" maskUnits="userSpaceOnUse" x="10" y="9" width="9" height="9">
<path d="M14.5 17C14.9597 17.0006 15.415 16.9103 15.8397 16.7344C16.2644 16.5585 16.6502 16.3003 16.9748 15.9748C17.3003 15.6502 17.5585 15.2644 17.7344 14.8397C17.9103 14.415 18.0006 13.9597 18 13.5C18.0006 13.0403 17.9103 12.585 17.7344 12.1603C17.5585 11.7356 17.3003 11.3498 16.9748 11.0252C16.6502 10.6997 16.2644 10.4415 15.8397 10.2656C15.415 10.0897 14.9597 9.99941 14.5 10C14.0403 9.99942 13.585 10.0897 13.1603 10.2656C12.7356 10.4415 12.3498 10.6997 12.0252 11.0252C11.6997 11.3498 11.4415 11.7356 11.2656 12.1603C11.0897 12.585 10.9994 13.0403 11 13.5C10.9994 13.9597 11.0897 14.415 11.2656 14.8397C11.4415 15.2644 11.6997 15.6502 12.0252 15.9748C12.3498 16.3003 12.7356 16.5585 13.1603 16.7344C13.585 16.9103 14.0403 17.0006 14.5 17Z" fill="white" stroke="white" stroke-linejoin="round"/>
<path d="M13.0996 13.5L14.1496 14.5499L16.2496 12.45" stroke="black" stroke-width="0.8" stroke-linecap="round" stroke-linejoin="round"/>
</mask>
<g mask="url(#mask0_1659_13513)">
<path d="M10.2998 9.30005H18.6998V17.7H10.2998V9.30005Z" fill="#1D2630"/>
</g>
</svg>
